<svg width="190" height="193" viewBox="0 0 190 193" fill="none" xmlns="http://www.w3.org/2000/svg">
<path fill-rule="evenodd" clip-rule="evenodd" d="M138.6 121.341L136.537 121.35H136.521V121.333L138.6 121.341Z" fill="#4FE3C2"/>
<path d="M22.0535 58.5574C29.6448 24.3447 59.9717 0 95 0C130.028 0 160.355 24.3447 167.947 58.5574L189.236 154.504C193.619 174.261 178.592 193 158.363 193H137.018C119.553 193 105.394 178.835 105.394 161.361V111.356C113.353 114.662 134.986 123.639 136.334 124.156C137.836 124.722 138.852 124.344 139.444 123.934C139.907 123.614 140.679 122.851 140.679 121.35L140.662 120.964C140.598 120.209 140.37 117.846 140.167 116.024C139.924 113.793 138.754 112.849 138.015 112.258C137.528 111.856 111.168 90.9829 105.394 86.4127V55.7343C105.394 46.4873 97.956 42.5735 95 42.5735C92.044 42.5735 84.6056 46.4873 84.6056 55.7343V86.4127C79.4652 90.4824 52.464 111.865 51.8792 112.349L51.876 112.351C51.2417 112.86 50.076 113.796 49.8328 116.024C49.6296 117.846 49.4024 120.201 49.3376 120.964L49.3212 121.35C49.3212 122.843 50.1008 123.614 50.5636 123.934C51.1484 124.353 52.1716 124.722 53.6656 124.156C55.0136 123.639 76.6472 114.662 84.6056 111.356V161.361C84.6056 178.835 70.4471 193 52.9818 193H31.6366C11.4081 193 -3.6195 174.261 0.764385 154.504L22.0535 58.5574Z" fill="#4FE3C2"/>
</svg>
